PathFileType	4	(X/Y/Z)	/Users/niels/Desktop/University/Third Semester/Perception and Action/Exam/Gymnastics Motion Tracking/Code for Gym Tracking/Analyzed Data/Webcam_Backflip/id2_1_trajectory_Sports2D/id2_1_trajectory_Sports2D_px_person00.trc
DataRate	CameraRate	NumFrames	NumMarkers	Units	OrigDataRate	OrigDataStartFrame	OrigNumFrames
29.702970297029704	29.702970297029704	8	22	m	29.702970297029704	50	101
Frame#	Time	Hip			RHip			RKnee			RAnkle			RBigToe			RSmallToe			RHeel			LHip			LKnee			LAnkle			LBigToe			LSmallToe			LHeel			Neck			Head			Nose			RShoulder			RElbow			RWrist			LShoulder			LElbow			LWrist		
		X1	Y1	Z1	X2	Y2	Z2	X3	Y3	Z3	X4	Y4	Z4	X5	Y5	Z5	X6	Y6	Z6	X7	Y7	Z7	X8	Y8	Z8	X9	Y9	Z9	X10	Y10	Z10	X11	Y11	Z11	X12	Y12	Z12	X13	Y13	Z13	X14	Y14	Z14	X15	Y15	Z15	X16	Y16	Z16	X17	Y17	Z17	X18	Y18	Z18	X19	Y19	Z19	X20	Y20	Z20	X21	Y21	Z21	X22	Y22	Z22
50	1.6833333333333331	0.8865384739308425	-0.662591578969753	0.0	0.8767798868456419	-0.6641728881708161	0.0	0.920134965579363	-0.768934193551368	0.0	0.9400125628814212	-0.8861473929957138	0.0	0.9894642981622467	-0.8968993675896213	0.0	0.9782050573111182	-0.9030464841073473	0.0	0.9333303352700826	-0.9034454511174251	0.0	0.8910160075159671	-0.6644402071042964	0.0	0.853284641920678	-0.7722599669936419	0.0	0.7945322793052543	-0.8576208551785856	0.0	0.8175720732970128	-0.8952936308281175	0.0	0.8117119134805503	-0.8901844598248673	0.0	0.7796956047304797	-0.8713272498783742	0.0	0.9130318063220643	-0.49317042518572457	0.0	0.9214383757512459	-0.4247326125310411	0.0	0.9285220989993387	-0.45793727118950284	0.0	0.8801126320391627	-0.5197457092903364	0.0	0.85273028315245	-0.5988237596964855	0.0	0.858634138718382	-0.6561279863497217	0.0	0.9383571455687905	-0.517774329436135	0.0	0.9173105116274209	-0.5931550352480799	0.0	0.9291977747025577	-0.6579264989090943	0.0
51	1.7169999999999999	0.895596651989859	-0.6608225061231869	0.0	0.885500553038192	-0.6623369257032438	0.0	0.9233953153863493	-0.7678805980486311	0.0	0.9401898279143206	-0.885407449438549	0.0	0.9897606921008609	-0.8961615835620117	0.0	0.9783578659774398	-0.9022624823753853	0.0	0.9331559451909363	-0.902309378651497	0.0	0.9009034621471794	-0.6626130601901352	0.0	0.8633120164377044	-0.7694549635713778	0.0	0.7991638479634513	-0.849755018725921	0.0	0.8158556420234266	-0.8904695960005637	0.0	0.8110282742325244	-0.884936482360441	0.0	0.7842104174885132	-0.8611508327660158	0.0	0.9210060274136387	-0.49030965688164424	0.0	0.9286068484579578	-0.4214696978529129	0.0	0.9353480196835143	-0.45456328489237946	0.0	0.8877671788548722	-0.5169410232993865	0.0	0.8593351516350938	-0.5959782625307939	0.0	0.8636059689723273	-0.6638478022329096	0.0	0.947645095322031	-0.5144394615820663	0.0	0.9233356129918243	-0.5899398900503776	0.0	0.9289284913702526	-0.6582899620180422	0.0
52	1.7506666666666666	0.9046633009029404	-0.6548432295170536	0.0	0.8939916885561834	-0.6562912373071378	0.0	0.9267997023615739	-0.7629745983659993	0.0	0.9404496001209505	-0.880920709701653	0.0	0.9897582299466848	-0.8921617105961489	0.0	0.9784764356848915	-0.8981552161984987	0.0	0.9330677421279433	-0.8977000654943827	0.0	0.9111827812487755	-0.6565536648246015	0.0	0.8764777542367796	-0.763290795996893	0.0	0.8066529016276187	-0.8376499637670249	0.0	0.8151478582512206	-0.8816391357825115	0.0	0.811704636471032	-0.8758540536550519	0.0	0.791729842608023	-0.8458578637261515	0.0	0.928962202755037	-0.4833350017772794	0.0	0.9356392036658174	-0.41387053764393444	0.0	0.9420972006186535	-0.4472777656610419	0.0	0.8951881679968269	-0.5097264434267408	0.0	0.8650419386886519	-0.5887148577457374	0.0	0.868141847790315	-0.662368605018935	0.0	0.9571341920969694	-0.506934662650787	0.0	0.9324265071095161	-0.5827356792421864	0.0	0.9363935442912947	-0.6528923564181537	0.0
53	1.784333333333333	0.9136764334134606	-0.6455176253627322	0.0	0.9020321916483921	-0.646901806040795	0.0	0.9302909924409378	-0.755097508490646	0.0	0.9408562585137236	-0.8733760283420919	0.0	0.9894147409697195	-0.8856716518511188	0.0	0.9782859346628339	-0.8914667318114133	0.0	0.9331587251125923	-0.8904271019360608	0.0	0.9218831917291033	-0.6471546721468754	0.0	0.8928355577935502	-0.754609403448369	0.0	0.8177301848670524	-0.8224756527322041	0.0	0.817162964643656	-0.8697441215312505	0.0	0.8152957549365271	-0.863924869627773	0.0	0.802910709314208	-0.8270480280339261	0.0	0.9367659015038294	-0.4730765630738344	0.0	0.9425583734560345	-0.4028512388830983	0.0	0.9487697123657103	-0.4368684493938459	0.0	0.902152908710652	-0.4990274509487904	0.0	0.8698723436840614	-0.577776051270694	0.0	0.8726707017546179	-0.6539149630414173	0.0	0.9666150128276975	-0.4963328015747949	0.0	0.9440973524514258	-0.5725949988934363	0.0	0.95050302214734	-0.6429528283456809	0.0
54	1.8179999999999998	0.922667758538075	-0.6340393944767181	0.0	0.9094983907024237	-0.635421786772497	0.0	0.9338305786419294	-0.7454667792241656	0.0	0.9414183903763123	-0.8638183905455501	0.0	0.9885477925028625	-0.8777582367734659	0.0	0.9773293526503635	-0.8832251044550661	0.0	0.9335184475767848	-0.8814911311966582	0.0	0.9330762870218136	-0.635662537321794	0.0	0.9118741121902899	-0.7444920236574841	0.0	0.8327814429233324	-0.8061122939612841	0.0	0.8240404219888244	-0.8563557195348593	0.0	0.8236960971426053	-0.8506366823709559	0.0	0.818070666572434	-0.8073597279887791	0.0	0.9443187722709248	-0.4606825118784544	0.0	0.9493972180881123	-0.38967771453150957	0.0	0.9553251685193646	-0.42443481132349853	0.0	0.9084899820206913	-0.4861157835329423	0.0	0.8740607608874821	-0.5643735750510402	0.0	0.8775141424142446	-0.6410950123000884	0.0	0.9759642054474924	-0.4839517157526074	0.0	0.9574278599128137	-0.5605032078619293	0.0	0.9687332220424939	-0.6296208230819788	0.0
55	1.8516666666666666	0.9316429544968295	-0.6217602927520608	0.0	0.9163688143902451	-0.6232676127455965	0.0	0.9374070965729155	-0.7353459631818907	0.0	0.9421232753341939	-0.8534352684995646	0.0	0.9867680147349626	-0.8695859890602031	0.0	0.9750833495306398	-0.8745759208799762	0.0	0.9342082063207657	-0.8718833032681176	0.0	0.9446534274971574	-0.6234426225906642	0.0	0.9325728374018092	-0.7340694734164487	0.0	0.8516959335804746	-0.7907821965899816	0.0	0.8376254011664139	-0.8433627347198159	0.0	0.838546722812302	-0.8377584672158	0.0	0.8370753639252403	-0.789795567690645	0.0	0.9515948315216866	-0.44747062240199553	0.0	0.9561660067612191	-0.3757112781945544	0.0	0.9616836168721982	-0.4112694652811576	0.0	0.9142043691588705	-0.4723946127945799	0.0	0.8779832382051486	-0.5499856684315378	0.0	0.8829157043491188	-0.6263753264583306	0.0	0.985107528411975	-0.4711541292643443	0.0	0.971414187260948	-0.5475485732238392	0.0	0.9882867487157297	-0.6143346695695497	0.0
56	1.885333333333333	0.9405233611056001	-0.6099986665063706	0.0	0.9227290753528198	-0.6117878515542362	0.0	0.941026586609851	-0.72578346948493	0.0	0.9430604149660248	-0.8433252820051611	0.0	0.9839314583730785	-0.8621802838172788	0.0	0.9714881784533008	-0.8665683586454682	0.0	0.9353463802060575	-0.8624681332383872	0.0	0.9562934006840489	-0.6117688016590521	0.0	0.9536694349486756	-0.7243018218210366	0.0	0.8739222286970467	-0.7784936927812421	0.0	0.8586261510717771	-0.8325112023034341	0.0	0.8605194250945867	-0.8269583326543705	0.0	0.8594632660774874	-0.7768497331957149	0.0	0.9586320538482805	-0.434740006926383	0.0	0.9628518665489227	-0.36221767279084977	0.0	0.9677978796559924	-0.398670864287817	0.0	0.9194906079382781	-0.45920356615574975	0.0	0.8820614022158887	-0.5361044621524772	0.0	0.8891345591893408	-0.6118394564651298	0.0	0.9939961893259213	-0.45913164224334213	0.0	0.9851608196098731	-0.534888337553751	0.0	1.0068190397733041	-0.5987840694727088	0.0
57	1.9189999999999998	0.9491941494488677	-0.5997834938677788	0.0	0.9287789883270785	-0.6019597618560221	0.0	0.9447558055751701	-0.7174635560600708	0.0	0.9444321488640693	-0.8343554615410341	0.0	0.9807375093946933	-0.8562674365943777	0.0	0.9674414559308021	-0.859972761403859	0.0	0.9371050997322399	-0.8539522809332476	0.0	0.9675770663749445	-0.6015805217202572	0.0	0.9740900187520541	-0.7157311012367971	0.0	0.8986747352893876	-0.7705854335073612	0.0	0.8861865299248851	-0.8250930342339896	0.0	0.8889087970647795	-0.8194366343888572	0.0	0.8846108187200382	-0.7700031382085387	0.0	0.9655026482657858	-0.4235122681260904	0.0	0.9694043930266024	-0.35025768257277834	0.0	0.9737414427146613	-0.3876626383340764	0.0	0.9246237500467511	-0.4476531290373221	0.0	0.8866993885580821	-0.5240528358184497	0.0	0.8964716629239512	-0.5991032658192048	0.0	1.0026326392177702	-0.4487393417386329	0.0	0.9979086760726656	-0.5235205076729472	0.0	1.022671172289841	-0.5845998565012597	0.0
